<?xml version="1.0" standalone="no"?>
<!DOCTYPE svg PUBLIC "-//W3C//DTD SVG 20010904//EN"
 "http://www.w3.org/TR/2001/REC-SVG-20010904/DTD/svg10.dtd">
<svg version="1.0" xmlns="http://www.w3.org/2000/svg"
 width="200.000000pt" height="200.000000pt" viewBox="0 0 200.000000 200.000000"
 preserveAspectRatio="xMidYMid meet">

<g transform="translate(0.000000,200.000000) scale(0.100000,-0.100000)"
fill="#000000" stroke="none">
<path d="M275 1226 c-21 -21 -25 -35 -25 -81 l0 -55 -58 0 c-84 0 -92 -12 -92
-133 0 -104 10 -127 56 -127 21 0 24 -5 24 -35 0 -19 4 -35 8 -35 4 0 23 16
42 35 31 32 39 35 90 35 31 0 61 5 68 12 7 7 12 33 12 59 0 26 4 50 8 53 5 3
26 -12 47 -34 21 -22 42 -37 47 -34 4 3 8 21 8 40 0 29 3 34 24 34 47 0 56 22
56 139 0 149 4 145 -159 149 -128 4 -131 3 -156 -22z m291 -30 c3 -13 2 -66
-3 -117 l-8 -94 -32 -3 c-27 -3 -33 -7 -33 -28 0 -31 -10 -30 -40 1 -21 22
-32 25 -91 25 -57 0 -70 3 -79 19 -14 28 -13 194 2 209 8 8 55 12 145 12 131
0 133 0 139 -24z m-316 -159 c0 -55 23 -77 82 -77 l50 0 -6 -36 c-4 -19 -10
-43 -13 -51 -5 -12 -3 -14 7 -8 9 5 11 4 6 -3 -4 -7 -32 -12 -64 -12 -47 0
-60 -4 -84 -27 l-28 -27 0 27 c0 23 -4 27 -28 27 -15 0 -33 5 -40 12 -16 16
-16 180 0 196 7 7 36 12 65 12 l53 0 0 -33z"/>
<path d="M362 1138 c-20 -20 -14 -44 20 -77 17 -17 35 -31 39 -31 4 0 21 12
38 26 52 43 34 119 -20 86 -11 -7 -20 -8 -24 -2 -8 14 -39 12 -53 -2z"/>
<path d="M764 1128 c8 -40 8 -52 0 -101 -6 -36 -5 -38 17 -35 15 2 25 12 29
28 8 34 34 32 38 -2 3 -22 9 -28 28 -28 19 0 24 5 24 25 0 14 -6 34 -12 45
-10 16 -10 24 0 40 21 33 15 60 -12 60 -18 0 -25 -6 -28 -22 -2 -13 -10 -23
-18 -23 -8 0 -16 10 -18 23 -3 16 -10 22 -29 22 -23 0 -25 -3 -19 -32z"/>
<path d="M920 1141 c0 -13 8 -21 23 -23 20 -3 22 -9 25 -65 3 -59 4 -63 27
-63 24 0 25 3 25 65 0 58 2 65 20 65 13 0 20 7 20 20 0 18 -7 20 -70 20 -62 0
-70 -2 -70 -19z"/>
<path d="M1090 1075 c0 -84 0 -85 25 -85 21 0 25 5 25 31 0 26 3 30 23 27 16
-2 23 -11 25 -30 3 -22 9 -28 28 -28 21 0 24 4 24 40 0 21 -6 43 -12 47 -7 4
-13 24 -13 43 l0 35 -62 3 -63 3 0 -86z m80 30 c0 -8 -7 -15 -15 -15 -8 0 -15
7 -15 15 0 8 7 15 15 15 8 0 15 -7 15 -15z"/>
<path d="M1270 1075 l0 -85 60 0 c53 0 60 2 60 20 0 16 -7 20 -35 20 -43 0
-49 27 -7 32 16 2 27 9 27 18 0 9 -11 16 -27 18 -40 5 -34 22 7 22 28 0 35 4
35 20 0 18 -7 20 -60 20 l-60 0 0 -85z"/>
<path d="M1430 1075 l0 -85 60 0 c53 0 60 2 60 20 0 16 -7 20 -35 20 -24 0
-35 5 -35 15 0 9 9 15 25 15 18 0 25 5 25 20 0 15 -7 20 -25 20 -14 0 -25 5
-25 10 0 6 16 10 35 10 28 0 35 4 35 20 0 18 -7 20 -60 20 l-60 0 0 -85z"/>
<path d="M560 910 c-22 -22 -27 -81 -10 -124 9 -24 15 -26 65 -26 48 0 55 2
55 20 0 16 -7 20 -35 20 -34 0 -35 1 -35 39 0 37 2 40 33 43 24 2 33 8 35 26
3 20 -1 22 -42 22 -33 0 -52 -6 -66 -20z"/>
<path d="M704 905 c-19 -29 -15 -118 5 -138 16 -16 94 -15 114 2 13 10 17 30
17 77 0 73 -11 84 -79 84 -32 0 -44 -5 -57 -25z m84 -63 c3 -37 1 -42 -17 -42
-18 0 -21 6 -21 46 0 38 3 45 18 42 12 -2 18 -15 20 -46z"/>
<path d="M880 845 c0 -84 0 -85 25 -85 23 0 25 4 26 43 0 23 3 36 6 30 2 -7
13 -13 23 -13 10 0 21 6 23 13 3 6 6 -7 6 -30 1 -39 3 -43 26 -43 25 0 25 1
25 85 0 84 0 85 -25 85 -17 0 -29 -8 -37 -25 -6 -14 -14 -25 -18 -25 -4 0 -13
11 -20 25 -8 16 -22 25 -37 25 -22 0 -23 -3 -23 -85z"/>
<path d="M1080 845 c0 -84 0 -85 25 -85 23 0 25 4 25 41 0 37 2 40 16 28 12
-10 20 -10 35 -1 18 11 19 9 19 -28 0 -36 2 -40 25 -40 25 0 25 1 25 85 0 83
-1 85 -24 85 -15 0 -32 -10 -43 -26 l-19 -26 -17 26 c-11 16 -27 26 -42 26
-25 0 -25 -1 -25 -85z"/>
<path d="M1284 917 c-3 -8 -4 -45 -2 -83 l3 -69 63 -3 c57 -3 62 -1 62 18 0
16 -6 20 -35 20 -19 0 -35 5 -35 10 0 6 11 10 25 10 18 0 25 5 25 20 0 15 -7
20 -25 20 -16 0 -25 6 -25 15 0 10 11 15 35 15 28 0 35 4 35 20 0 18 -7 20
-60 20 -42 0 -62 -4 -66 -13z"/>
<path d="M1440 845 c0 -84 0 -85 25 -85 20 0 25 5 25 25 0 20 5 25 25 25 20 0
25 -5 25 -25 0 -20 5 -25 25 -25 22 0 25 4 25 39 0 22 -5 43 -10 46 -6 3 -7
17 -4 29 9 37 -19 56 -82 56 l-54 0 0 -85z m86 34 c10 -17 -13 -36 -27 -22
-12 12 -4 33 11 33 5 0 12 -5 16 -11z"/>
<path d="M1638 919 c-14 -8 -18 -24 -18 -72 0 -36 5 -68 12 -75 7 -7 34 -12
60 -12 41 0 48 3 48 20 0 16 -7 20 -35 20 -34 0 -35 1 -35 40 0 39 1 40 35 40
31 0 35 3 35 25 0 23 -4 25 -42 25 -24 0 -51 -5 -60 -11z"/>
<path d="M1770 845 l0 -85 65 0 c58 0 65 2 65 20 0 17 -7 20 -40 20 -22 0 -40
5 -40 10 0 6 14 10 30 10 40 0 44 37 5 42 -38 5 -31 23 10 26 27 2 35 8 35 23
0 17 -7 19 -65 19 l-65 0 0 -85z"/>
</g>
</svg>
